<svg xmlns="http://www.w3.org/2000/svg" viewBox="0 0 1280 860" width="1280" height="860">
<style>text { font-family: 'Helvetica Neue', Helvetica, Arial, 'PingFang SC', 'Microsoft YaHei', 'Microsoft JhengHei', 'SimHei', sans-serif; letter-spacing:0; }</style>
<defs><marker id="arrow-blue" markerWidth="10" markerHeight="7" refX="9" refY="3.5" orient="auto"><polygon points="0 0, 10 3.5, 0 7" fill="#2563eb"/></marker><marker id="arrow-green" markerWidth="10" markerHeight="7" refX="9" refY="3.5" orient="auto"><polygon points="0 0, 10 3.5, 0 7" fill="#16a34a"/></marker><marker id="arrow-red" markerWidth="10" markerHeight="7" refX="9" refY="3.5" orient="auto"><polygon points="0 0, 10 3.5, 0 7" fill="#dc2626"/></marker><marker id="arrow-purple" markerWidth="10" markerHeight="7" refX="9" refY="3.5" orient="auto"><polygon points="0 0, 10 3.5, 0 7" fill="#9333ea"/></marker><marker id="arrow-orange" markerWidth="10" markerHeight="7" refX="9" refY="3.5" orient="auto"><polygon points="0 0, 10 3.5, 0 7" fill="#ea580c"/></marker><marker id="arrow-teal" markerWidth="10" markerHeight="7" refX="9" refY="3.5" orient="auto"><polygon points="0 0, 10 3.5, 0 7" fill="#0f766e"/></marker></defs>
<rect width="1280" height="860" fill="#ffffff"/>
<text x="34" y="42" fill="#111827" font-size="24" font-weight="600" text-anchor="start">业务流程对比图</text>
<text x="34" y="68" fill="#6b7280" font-size="13" text-anchor="start">四个系统的流程目标不同：HyperAgent 以实验决策为终点，Hermes 以平台运行为终点，Claude 以开发任务完成为终点，Reasonix 以可靠低成本工具循环为终点。</text>
<line x1="315" y1="162" x2="350" y2="162" stroke="#16a34a" stroke-width="2" fill="none" marker-end="url(#arrow-green)"/>
<line x1="455" y1="162" x2="490" y2="162" stroke="#16a34a" stroke-width="2" fill="none" marker-end="url(#arrow-green)"/>
<line x1="595" y1="162" x2="630" y2="162" stroke="#16a34a" stroke-width="2" fill="none" marker-end="url(#arrow-green)"/>
<line x1="735" y1="162" x2="770" y2="162" stroke="#16a34a" stroke-width="2" fill="none" marker-end="url(#arrow-green)"/>
<line x1="875" y1="162" x2="910" y2="162" stroke="#16a34a" stroke-width="2" fill="none" marker-end="url(#arrow-green)"/>
<line x1="1015" y1="162" x2="1050" y2="162" stroke="#16a34a" stroke-width="2" fill="none" marker-end="url(#arrow-green)"/>
<line x1="170" y1="162" x2="210" y2="162" stroke="#16a34a" stroke-width="2" fill="none" marker-end="url(#arrow-green)"/>
<line x1="315" y1="282" x2="350" y2="282" stroke="#6b7280" stroke-width="2" fill="none" marker-end="url(#arrow-blue)"/>
<line x1="455" y1="282" x2="490" y2="282" stroke="#6b7280" stroke-width="2" fill="none" marker-end="url(#arrow-blue)"/>
<line x1="595" y1="282" x2="630" y2="282" stroke="#6b7280" stroke-width="2" fill="none" marker-end="url(#arrow-blue)"/>
<line x1="735" y1="282" x2="770" y2="282" stroke="#6b7280" stroke-width="2" fill="none" marker-end="url(#arrow-blue)"/>
<line x1="875" y1="282" x2="910" y2="282" stroke="#6b7280" stroke-width="2" fill="none" marker-end="url(#arrow-blue)"/>
<line x1="1015" y1="282" x2="1050" y2="282" stroke="#6b7280" stroke-width="2" fill="none" marker-end="url(#arrow-blue)"/>
<line x1="170" y1="282" x2="210" y2="282" stroke="#6b7280" stroke-width="2" fill="none" marker-end="url(#arrow-blue)"/>
<line x1="315" y1="402" x2="350" y2="402" stroke="#6b7280" stroke-width="2" fill="none" marker-end="url(#arrow-blue)"/>
<line x1="455" y1="402" x2="490" y2="402" stroke="#6b7280" stroke-width="2" fill="none" marker-end="url(#arrow-blue)"/>
<line x1="595" y1="402" x2="630" y2="402" stroke="#6b7280" stroke-width="2" fill="none" marker-end="url(#arrow-blue)"/>
<line x1="735" y1="402" x2="770" y2="402" stroke="#6b7280" stroke-width="2" fill="none" marker-end="url(#arrow-blue)"/>
<line x1="875" y1="402" x2="910" y2="402" stroke="#6b7280" stroke-width="2" fill="none" marker-end="url(#arrow-blue)"/>
<line x1="1015" y1="402" x2="1050" y2="402" stroke="#6b7280" stroke-width="2" fill="none" marker-end="url(#arrow-blue)"/>
<line x1="170" y1="402" x2="210" y2="402" stroke="#6b7280" stroke-width="2" fill="none" marker-end="url(#arrow-blue)"/>
<line x1="315" y1="522" x2="350" y2="522" stroke="#6b7280" stroke-width="2" fill="none" marker-end="url(#arrow-blue)"/>
<line x1="455" y1="522" x2="490" y2="522" stroke="#6b7280" stroke-width="2" fill="none" marker-end="url(#arrow-blue)"/>
<line x1="595" y1="522" x2="630" y2="522" stroke="#6b7280" stroke-width="2" fill="none" marker-end="url(#arrow-blue)"/>
<line x1="735" y1="522" x2="770" y2="522" stroke="#6b7280" stroke-width="2" fill="none" marker-end="url(#arrow-blue)"/>
<line x1="875" y1="522" x2="910" y2="522" stroke="#6b7280" stroke-width="2" fill="none" marker-end="url(#arrow-blue)"/>
<line x1="1015" y1="522" x2="1050" y2="522" stroke="#6b7280" stroke-width="2" fill="none" marker-end="url(#arrow-blue)"/>
<line x1="170" y1="522" x2="210" y2="522" stroke="#6b7280" stroke-width="2" fill="none" marker-end="url(#arrow-blue)"/>
<rect x="60" y="130" width="110" height="64" rx="8" ry="8" fill="#f0fdf4" stroke="#bbf7d0" stroke-width="1.5"/>
<text x="115.0" y="154" fill="#111827" font-size="14" font-weight="600" text-anchor="middle">HyperAgent</text>
<text x="74" y="176" fill="#6b7280" font-size="11" text-anchor="start">workflow</text>
<rect x="210" y="130" width="105" height="64" rx="8" ry="8" fill="#f0fdf4" stroke="#bbf7d0" stroke-width="1.5"/>
<text x="262.5" y="154" fill="#111827" font-size="14" font-weight="600" text-anchor="middle">audit</text>
<rect x="350" y="130" width="105" height="64" rx="8" ry="8" fill="#f0fdf4" stroke="#bbf7d0" stroke-width="1.5"/>
<text x="402.5" y="154" fill="#111827" font-size="14" font-weight="600" text-anchor="middle">diagnosis</text>
<rect x="490" y="130" width="105" height="64" rx="8" ry="8" fill="#f0fdf4" stroke="#bbf7d0" stroke-width="1.5"/>
<text x="542.5" y="154" fill="#111827" font-size="14" font-weight="600" text-anchor="middle">plan</text>
<rect x="630" y="130" width="105" height="64" rx="8" ry="8" fill="#f0fdf4" stroke="#bbf7d0" stroke-width="1.5"/>
<text x="682.5" y="154" fill="#111827" font-size="14" font-weight="600" text-anchor="middle">action</text>
<rect x="770" y="130" width="105" height="64" rx="8" ry="8" fill="#f0fdf4" stroke="#bbf7d0" stroke-width="1.5"/>
<text x="822.5" y="154" fill="#111827" font-size="14" font-weight="600" text-anchor="middle">experiment</text>
<rect x="910" y="130" width="105" height="64" rx="8" ry="8" fill="#f0fdf4" stroke="#bbf7d0" stroke-width="1.5"/>
<text x="962.5" y="154" fill="#111827" font-size="14" font-weight="600" text-anchor="middle">council</text>
<rect x="1050" y="130" width="105" height="64" rx="8" ry="8" fill="#f0fdf4" stroke="#bbf7d0" stroke-width="1.5"/>
<text x="1102.5" y="154" fill="#111827" font-size="14" font-weight="600" text-anchor="middle"><tspan x="1102.5" dy="0">next paper </tspan><tspan x="1102.5" dy="18">claim</tspan></text>
<rect x="60" y="250" width="110" height="64" rx="8" ry="8" fill="#f0fdfa" stroke="#99f6e4" stroke-width="1.5"/>
<text x="115.0" y="274" fill="#111827" font-size="14" font-weight="600" text-anchor="middle">Hermes</text>
<text x="74" y="296" fill="#6b7280" font-size="11" text-anchor="start">workflow</text>
<rect x="210" y="250" width="105" height="64" rx="8" ry="8" fill="#f0fdfa" stroke="#99f6e4" stroke-width="1.5"/>
<text x="262.5" y="274" fill="#111827" font-size="14" font-weight="600" text-anchor="middle">gateway</text>
<rect x="350" y="250" width="105" height="64" rx="8" ry="8" fill="#f0fdfa" stroke="#99f6e4" stroke-width="1.5"/>
<text x="402.5" y="274" fill="#111827" font-size="14" font-weight="600" text-anchor="middle">agent</text>
<rect x="490" y="250" width="105" height="64" rx="8" ry="8" fill="#f0fdfa" stroke="#99f6e4" stroke-width="1.5"/>
<text x="542.5" y="274" fill="#111827" font-size="14" font-weight="600" text-anchor="middle">tools</text>
<rect x="630" y="250" width="105" height="64" rx="8" ry="8" fill="#f0fdfa" stroke="#99f6e4" stroke-width="1.5"/>
<text x="682.5" y="274" fill="#111827" font-size="14" font-weight="600" text-anchor="middle">memory</text>
<rect x="770" y="250" width="105" height="64" rx="8" ry="8" fill="#f0fdfa" stroke="#99f6e4" stroke-width="1.5"/>
<text x="822.5" y="274" fill="#111827" font-size="14" font-weight="600" text-anchor="middle">skill</text>
<rect x="910" y="250" width="105" height="64" rx="8" ry="8" fill="#f0fdfa" stroke="#99f6e4" stroke-width="1.5"/>
<text x="962.5" y="274" fill="#111827" font-size="14" font-weight="600" text-anchor="middle">deploy</text>
<rect x="1050" y="250" width="105" height="64" rx="8" ry="8" fill="#f0fdfa" stroke="#99f6e4" stroke-width="1.5"/>
<text x="1102.5" y="274" fill="#111827" font-size="14" font-weight="600" text-anchor="middle">feedback</text>
<rect x="60" y="370" width="110" height="64" rx="8" ry="8" fill="#faf5ff" stroke="#e9d5ff" stroke-width="1.5"/>
<text x="115.0" y="394" fill="#111827" font-size="14" font-weight="600" text-anchor="middle">Claude</text>
<text x="74" y="416" fill="#6b7280" font-size="11" text-anchor="start">workflow</text>
<rect x="210" y="370" width="105" height="64" rx="8" ry="8" fill="#faf5ff" stroke="#e9d5ff" stroke-width="1.5"/>
<text x="262.5" y="394" fill="#111827" font-size="14" font-weight="600" text-anchor="middle">prompt</text>
<rect x="350" y="370" width="105" height="64" rx="8" ry="8" fill="#faf5ff" stroke="#e9d5ff" stroke-width="1.5"/>
<text x="402.5" y="394" fill="#111827" font-size="14" font-weight="600" text-anchor="middle">command</text>
<rect x="490" y="370" width="105" height="64" rx="8" ry="8" fill="#faf5ff" stroke="#e9d5ff" stroke-width="1.5"/>
<text x="542.5" y="394" fill="#111827" font-size="14" font-weight="600" text-anchor="middle">permission</text>
<rect x="630" y="370" width="105" height="64" rx="8" ry="8" fill="#faf5ff" stroke="#e9d5ff" stroke-width="1.5"/>
<text x="682.5" y="394" fill="#111827" font-size="14" font-weight="600" text-anchor="middle">tool</text>
<rect x="770" y="370" width="105" height="64" rx="8" ry="8" fill="#faf5ff" stroke="#e9d5ff" stroke-width="1.5"/>
<text x="822.5" y="394" fill="#111827" font-size="14" font-weight="600" text-anchor="middle">hook</text>
<rect x="910" y="370" width="105" height="64" rx="8" ry="8" fill="#faf5ff" stroke="#e9d5ff" stroke-width="1.5"/>
<text x="962.5" y="394" fill="#111827" font-size="14" font-weight="600" text-anchor="middle">TUI</text>
<rect x="1050" y="370" width="105" height="64" rx="8" ry="8" fill="#faf5ff" stroke="#e9d5ff" stroke-width="1.5"/>
<text x="1102.5" y="394" fill="#111827" font-size="14" font-weight="600" text-anchor="middle">finish</text>
<rect x="60" y="490" width="110" height="64" rx="8" ry="8" fill="#eff6ff" stroke="#bfdbfe" stroke-width="1.5"/>
<text x="115.0" y="514" fill="#111827" font-size="14" font-weight="600" text-anchor="middle">Reasonix</text>
<text x="74" y="536" fill="#6b7280" font-size="11" text-anchor="start">workflow</text>
<rect x="210" y="490" width="105" height="64" rx="8" ry="8" fill="#eff6ff" stroke="#bfdbfe" stroke-width="1.5"/>
<text x="262.5" y="514" fill="#111827" font-size="14" font-weight="600" text-anchor="middle">prefix</text>
<rect x="350" y="490" width="105" height="64" rx="8" ry="8" fill="#eff6ff" stroke="#bfdbfe" stroke-width="1.5"/>
<text x="402.5" y="514" fill="#111827" font-size="14" font-weight="600" text-anchor="middle">LLM</text>
<rect x="490" y="490" width="105" height="64" rx="8" ry="8" fill="#eff6ff" stroke="#bfdbfe" stroke-width="1.5"/>
<text x="542.5" y="514" fill="#111827" font-size="14" font-weight="600" text-anchor="middle">repair</text>
<rect x="630" y="490" width="105" height="64" rx="8" ry="8" fill="#eff6ff" stroke="#bfdbfe" stroke-width="1.5"/>
<text x="682.5" y="514" fill="#111827" font-size="14" font-weight="600" text-anchor="middle">tool</text>
<rect x="770" y="490" width="105" height="64" rx="8" ry="8" fill="#eff6ff" stroke="#bfdbfe" stroke-width="1.5"/>
<text x="822.5" y="514" fill="#111827" font-size="14" font-weight="600" text-anchor="middle">usage</text>
<rect x="910" y="490" width="105" height="64" rx="8" ry="8" fill="#eff6ff" stroke="#bfdbfe" stroke-width="1.5"/>
<text x="962.5" y="514" fill="#111827" font-size="14" font-weight="600" text-anchor="middle">replay</text>
<rect x="1050" y="490" width="105" height="64" rx="8" ry="8" fill="#eff6ff" stroke="#bfdbfe" stroke-width="1.5"/>
<text x="1102.5" y="514" fill="#111827" font-size="14" font-weight="600" text-anchor="middle">budget</text>
<rect x="250" y="655" width="760" height="72" rx="8" ry="8" fill="#fff7ed" stroke="#fed7aa" stroke-width="1.5"/>
<rect x="250" y="655" width="8" height="72" rx="8" fill="#ea580c" opacity="0.9"/>
<text x="630.0" y="679" fill="#111827" font-size="14" font-weight="600" text-anchor="middle">流程判断</text>
<text x="264" y="701" fill="#6b7280" font-size="11" text-anchor="start">HyperAgent 的改进在于把通用 agent 的 command、repair、platform status 变成科研实验闭环的可审</text>
<text x="264" y="717" fill="#6b7280" font-size="11" text-anchor="start">计支撑；不足是产品化和生态治理还没有 Hermes/Claude 成熟。</text>
<rect x="22" y="780" width="430" height="48" rx="8" fill="#ffffff" stroke="#e5e7eb"/>
<line x1="34" y1="802" x2="62" y2="802" stroke="#16a34a" stroke-width="2" marker-end="url(#arrow-green)"/>
<text x="70" y="806" fill="#6b7280" font-size="11" text-anchor="start">HyperAgent 主流程</text>
<line x1="174" y1="802" x2="202" y2="802" stroke="#6b7280" stroke-width="2" marker-end="url(#arrow-blue)"/>
<text x="210" y="806" fill="#6b7280" font-size="11" text-anchor="start">参考流程</text>
<line x1="314" y1="802" x2="342" y2="802" stroke="#ea580c" stroke-width="2" marker-end="url(#arrow-orange)"/>
<text x="350" y="806" fill="#6b7280" font-size="11" text-anchor="start">结论</text>
</svg>