<svg xmlns="http://www.w3.org/2000/svg" viewBox="0 0 1280 860" width="1280" height="860">
<style>text { font-family: 'Helvetica Neue', Helvetica, Arial, 'PingFang SC', 'Microsoft YaHei', 'Microsoft JhengHei', 'SimHei', sans-serif; letter-spacing:0; }</style>
<defs><marker id="arrow-blue" markerWidth="10" markerHeight="7" refX="9" refY="3.5" orient="auto"><polygon points="0 0, 10 3.5, 0 7" fill="#2563eb"/></marker><marker id="arrow-green" markerWidth="10" markerHeight="7" refX="9" refY="3.5" orient="auto"><polygon points="0 0, 10 3.5, 0 7" fill="#16a34a"/></marker><marker id="arrow-red" markerWidth="10" markerHeight="7" refX="9" refY="3.5" orient="auto"><polygon points="0 0, 10 3.5, 0 7" fill="#dc2626"/></marker><marker id="arrow-purple" markerWidth="10" markerHeight="7" refX="9" refY="3.5" orient="auto"><polygon points="0 0, 10 3.5, 0 7" fill="#9333ea"/></marker><marker id="arrow-orange" markerWidth="10" markerHeight="7" refX="9" refY="3.5" orient="auto"><polygon points="0 0, 10 3.5, 0 7" fill="#ea580c"/></marker><marker id="arrow-teal" markerWidth="10" markerHeight="7" refX="9" refY="3.5" orient="auto"><polygon points="0 0, 10 3.5, 0 7" fill="#0f766e"/></marker></defs>
<rect width="1280" height="860" fill="#ffffff"/>
<text x="34" y="42" fill="#111827" font-size="24" font-weight="600" text-anchor="start">HyperAgent 用例覆盖图</text>
<text x="34" y="68" fill="#6b7280" font-size="13" text-anchor="start">核心用例服务 HSI 科研；新增运行时能力提升可靠性、交互信任和平台可观测，但外部 channel 不开放本地工具循环。</text>
<line x1="205" y1="200" x2="270" y2="160" stroke="#2563eb" stroke-width="2" fill="none" marker-end="url(#arrow-blue)"/>
<rect x="201.5" y="164.0" width="72" height="22" rx="5" fill="#ffffff" opacity="0.96"/><text x="237.5" y="180.0" fill="#2563eb" font-size="11" font-weight="600" text-anchor="middle">发起</text>
<line x1="205" y1="370" x2="270" y2="340" stroke="#9333ea" stroke-width="2" fill="none" marker-end="url(#arrow-purple)"/>
<rect x="201.5" y="339.0" width="72" height="22" rx="5" fill="#ffffff" opacity="0.96"/><text x="237.5" y="355.0" fill="#9333ea" font-size="11" font-weight="600" text-anchor="middle">维护</text>
<line x1="1030" y1="340" x2="1075" y2="240" stroke="#0f766e" stroke-width="2" fill="none" marker-end="url(#arrow-teal)" stroke-dasharray="7,5"/>
<rect x="1016.5" y="274.0" width="72" height="22" rx="5" fill="#ffffff" opacity="0.96"/><text x="1052.5" y="290.0" fill="#0f766e" font-size="11" font-weight="600" text-anchor="middle">chat only</text>
<line x1="1030" y1="520" x2="1075" y2="420" stroke="#16a34a" stroke-width="2" fill="none" marker-end="url(#arrow-green)"/>
<rect x="1000.0" y="454.0" width="105" height="22" rx="5" fill="#ffffff" opacity="0.96"/><text x="1052.5" y="470.0" fill="#16a34a" font-size="11" font-weight="600" text-anchor="middle">provider/memory</text>
<line x1="500" y1="160" x2="535" y2="160" stroke="#16a34a" stroke-width="2" fill="none" marker-end="url(#arrow-green)"/>
<rect x="481.5" y="144.0" width="72" height="22" rx="5" fill="#ffffff" opacity="0.96"/><text x="517.5" y="160.0" fill="#16a34a" font-size="11" font-weight="600" text-anchor="middle">include</text>
<line x1="765" y1="160" x2="800" y2="160" stroke="#2563eb" stroke-width="2" fill="none" marker-end="url(#arrow-blue)"/>
<rect x="746.5" y="144.0" width="72" height="22" rx="5" fill="#ffffff" opacity="0.96"/><text x="782.5" y="160.0" fill="#2563eb" font-size="11" font-weight="600" text-anchor="middle">include</text>
<line x1="500" y1="340" x2="535" y2="340" stroke="#9333ea" stroke-width="2" fill="none" marker-end="url(#arrow-purple)"/>
<rect x="481.5" y="324.0" width="72" height="22" rx="5" fill="#ffffff" opacity="0.96"/><text x="517.5" y="340.0" fill="#9333ea" font-size="11" font-weight="600" text-anchor="middle">权限</text>
<line x1="765" y1="340" x2="800" y2="340" stroke="#0f766e" stroke-width="2" fill="none" marker-end="url(#arrow-teal)"/>
<rect x="746.5" y="324.0" width="72" height="22" rx="5" fill="#ffffff" opacity="0.96"/><text x="782.5" y="340.0" fill="#0f766e" font-size="11" font-weight="600" text-anchor="middle">观测</text>
<line x1="500" y1="520" x2="535" y2="520" stroke="#0f766e" stroke-width="2" fill="none" marker-end="url(#arrow-teal)"/>
<rect x="481.5" y="504.0" width="72" height="22" rx="5" fill="#ffffff" opacity="0.96"/><text x="517.5" y="520.0" fill="#0f766e" font-size="11" font-weight="600" text-anchor="middle">skill</text>
<line x1="765" y1="520" x2="800" y2="520" stroke="#2563eb" stroke-width="2" fill="none" marker-end="url(#arrow-blue)"/>
<rect x="746.5" y="504.0" width="72" height="22" rx="5" fill="#ffffff" opacity="0.96"/><text x="782.5" y="520.0" fill="#2563eb" font-size="11" font-weight="600" text-anchor="middle">写作</text>
<rect x="45" y="160" width="160" height="80" rx="8" ry="8" fill="#eff6ff" stroke="#bfdbfe" stroke-width="1.5"/>
<rect x="45" y="160" width="8" height="80" rx="8" fill="#2563eb" opacity="0.9"/>
<text x="125.0" y="184" fill="#111827" font-size="14" font-weight="600" text-anchor="middle">HSI 研究者</text>
<text x="59" y="206" fill="#6b7280" font-size="11" text-anchor="start">primary actor</text>
<rect x="45" y="330" width="160" height="80" rx="8" ry="8" fill="#faf5ff" stroke="#e9d5ff" stroke-width="1.5"/>
<rect x="45" y="330" width="8" height="80" rx="8" fill="#9333ea" opacity="0.9"/>
<text x="125.0" y="354" fill="#111827" font-size="14" font-weight="600" text-anchor="middle">开发/维护者</text>
<text x="59" y="376" fill="#6b7280" font-size="11" text-anchor="start">operator</text>
<rect x="1075" y="200" width="160" height="80" rx="8" ry="8" fill="#f0fdfa" stroke="#99f6e4" stroke-width="1.5"/>
<rect x="1075" y="200" width="8" height="80" rx="8" fill="#0f766e" opacity="0.9"/>
<text x="1155.0" y="224" fill="#111827" font-size="14" font-weight="600" text-anchor="middle">外部平台</text>
<text x="1089" y="246" fill="#6b7280" font-size="11" text-anchor="start">Feishu / QQ</text>
<rect x="1075" y="380" width="160" height="80" rx="8" ry="8" fill="#f0fdf4" stroke="#bbf7d0" stroke-width="1.5"/>
<rect x="1075" y="380" width="8" height="80" rx="8" fill="#16a34a" opacity="0.9"/>
<text x="1155.0" y="404" fill="#111827" font-size="14" font-weight="600" text-anchor="middle">LLM/HyperVault</text>
<text x="1089" y="426" fill="#6b7280" font-size="11" text-anchor="start">provider + memory</text>
<rect x="270" y="120" width="230" height="80" rx="8" ry="8" fill="#f0fdf4" stroke="#bbf7d0" stroke-width="1.5"/>
<rect x="270" y="120" width="8" height="80" rx="8" fill="#16a34a" opacity="0.9"/>
<text x="385.0" y="144" fill="#111827" font-size="14" font-weight="600" text-anchor="middle">审计数据集</text>
<text x="284" y="166" fill="#6b7280" font-size="11" text-anchor="start">检查 split、bands、类别分布</text>
<rect x="535" y="120" width="230" height="80" rx="8" ry="8" fill="#eff6ff" stroke="#bfdbfe" stroke-width="1.5"/>
<rect x="535" y="120" width="8" height="80" rx="8" fill="#2563eb" opacity="0.9"/>
<text x="650.0" y="144" fill="#111827" font-size="14" font-weight="600" text-anchor="middle">设计实验计划</text>
<text x="549" y="166" fill="#6b7280" font-size="11" text-anchor="start">baseline、模块、消融</text>
<rect x="800" y="120" width="230" height="80" rx="8" ry="8" fill="#fff7ed" stroke="#fed7aa" stroke-width="1.5"/>
<rect x="800" y="120" width="8" height="80" rx="8" fill="#ea580c" opacity="0.9"/>
<text x="915.0" y="144" fill="#111827" font-size="14" font-weight="600" text-anchor="middle">运行与评估</text>
<text x="814" y="166" fill="#6b7280" font-size="11" text-anchor="start">训练、指标、报告</text>
<rect x="270" y="300" width="230" height="80" rx="8" ry="8" fill="#faf5ff" stroke="#e9d5ff" stroke-width="1.5"/>
<rect x="270" y="300" width="8" height="80" rx="8" fill="#9333ea" opacity="0.9"/>
<text x="385.0" y="324" fill="#111827" font-size="14" font-weight="600" text-anchor="middle">可靠 Agent 行动</text>
<text x="284" y="346" fill="#6b7280" font-size="11" text-anchor="start">repair、budget、replay</text>
<rect x="535" y="300" width="230" height="80" rx="8" ry="8" fill="#faf5ff" stroke="#e9d5ff" stroke-width="1.5"/>
<rect x="535" y="300" width="8" height="80" rx="8" fill="#9333ea" opacity="0.9"/>
<text x="650.0" y="324" fill="#111827" font-size="14" font-weight="600" text-anchor="middle">权限与交互体验</text>
<text x="549" y="346" fill="#6b7280" font-size="11" text-anchor="start">remembered grants、TUI</text>
<rect x="800" y="300" width="230" height="80" rx="8" ry="8" fill="#f0fdfa" stroke="#99f6e4" stroke-width="1.5"/>
<rect x="800" y="300" width="8" height="80" rx="8" fill="#0f766e" opacity="0.9"/>
<text x="915.0" y="324" fill="#111827" font-size="14" font-weight="600" text-anchor="middle">平台状态与搜索</text>
<text x="814" y="346" fill="#6b7280" font-size="11" text-anchor="start">platform-status、session-sea</text>
<text x="814" y="362" fill="#6b7280" font-size="11" text-anchor="start">rch</text>
<rect x="270" y="480" width="230" height="80" rx="8" ry="8" fill="#f0fdf4" stroke="#bbf7d0" stroke-width="1.5"/>
<rect x="270" y="480" width="8" height="80" rx="8" fill="#16a34a" opacity="0.9"/>
<text x="385.0" y="504" fill="#111827" font-size="14" font-weight="600" text-anchor="middle">文献到模块</text>
<text x="284" y="526" fill="#6b7280" font-size="11" text-anchor="start">paper -&gt; module -&gt; ablation</text>
<rect x="535" y="480" width="230" height="80" rx="8" ry="8" fill="#f0fdfa" stroke="#99f6e4" stroke-width="1.5"/>
<rect x="535" y="480" width="8" height="80" rx="8" fill="#0f766e" opacity="0.9"/>
<text x="650.0" y="504" fill="#111827" font-size="14" font-weight="600" text-anchor="middle">Skill 生命周期</text>
<text x="549" y="526" fill="#6b7280" font-size="11" text-anchor="start">list/search/run/install/usag</text>
<text x="549" y="542" fill="#6b7280" font-size="11" text-anchor="start">e</text>
<rect x="800" y="480" width="230" height="80" rx="8" ry="8" fill="#eff6ff" stroke="#bfdbfe" stroke-width="1.5"/>
<rect x="800" y="480" width="8" height="80" rx="8" fill="#2563eb" opacity="0.9"/>
<text x="915.0" y="504" fill="#111827" font-size="14" font-weight="600" text-anchor="middle">科研叙事输出</text>
<text x="814" y="526" fill="#6b7280" font-size="11" text-anchor="start">claim、limit、next step</text>
<rect x="22" y="780" width="430" height="48" rx="8" fill="#ffffff" stroke="#e5e7eb"/>
<line x1="34" y1="802" x2="62" y2="802" stroke="#16a34a" stroke-width="2" marker-end="url(#arrow-green)"/>
<text x="70" y="806" fill="#6b7280" font-size="11" text-anchor="start">科研用例</text>
<line x1="174" y1="802" x2="202" y2="802" stroke="#9333ea" stroke-width="2" marker-end="url(#arrow-purple)"/>
<text x="210" y="806" fill="#6b7280" font-size="11" text-anchor="start">体验/权限</text>
<line x1="314" y1="802" x2="342" y2="802" stroke="#0f766e" stroke-width="2" marker-end="url(#arrow-teal)"/>
<text x="350" y="806" fill="#6b7280" font-size="11" text-anchor="start">平台入口</text>
</svg>